<svg width="616" height="255" viewBox="0 0 616 255" fill="none" xmlns="http://www.w3.org/2000/svg">
<path d="M615.986 159V210.8H591.486V250H534.786V210.8H423.486V159L501.536 5H561.736L483.686 159H534.786V106.5H591.486V159H615.986Z" fill="white"/>
<path d="M379.427 220.25C361.927 243.35 337.544 254.9 306.277 254.9C275.011 254.9 250.511 243.35 232.777 220.25C215.277 196.917 206.527 166 206.527 127.5C206.527 89 215.277 58.2 232.777 35.1C250.511 11.7666 275.011 0.0999756 306.277 0.0999756C337.544 0.0999756 361.927 11.7666 379.427 35.1C397.161 58.2 406.027 89 406.027 127.5C406.027 166 397.161 196.917 379.427 220.25ZM262.527 127.5C262.527 176.033 277.111 200.3 306.277 200.3C335.444 200.3 350.027 176.033 350.027 127.5C350.027 78.9666 335.444 54.7 306.277 54.7C277.111 54.7 262.527 78.9666 262.527 127.5Z" fill="white"/>
<path d="M192.5 159V210.8H168V250H111.3V210.8H0V159L78.05 5H138.25L60.2 159H111.3V106.5H168V159H192.5Z" fill="white"/>
</svg>
