<svg width="33" height="30" viewBox="0 0 33 30" fill="none" xmlns="http://www.w3.org/2000/svg">
<path d="M16.5 29.625L9.625 8.08337L31.625 14.0417L25.6667 18.625L31.625 25.5L27.5 29.625L20.625 23.6667L16.5 29.625Z" fill="#3A99D9"/>
<path d="M26.7667 18.7055C26.9071 18.7945 27.0286 18.8495 27.1196 18.9332C28.9211 20.5861 30.7206 22.2408 32.5182 23.8972C33.1566 24.4845 33.1604 25.043 32.5305 25.6234C31.101 26.9411 29.6705 28.2572 28.238 29.5723C27.6195 30.1405 27.0039 30.1405 26.3873 29.5741C24.5792 27.9116 22.7712 26.2491 20.9678 24.5831C20.8768 24.4993 20.8227 24.3824 20.7269 24.2462C20.4641 24.6041 20.2716 24.8641 20.0828 25.1259C19.0336 26.5746 17.9882 28.025 16.9334 29.4702C16.4932 30.0741 15.6812 30.1806 15.1699 29.6919C15.0067 29.5357 14.8882 29.3131 14.8189 29.102C12.9653 23.4407 11.1203 17.7778 9.2733 12.1148C8.87963 10.907 8.48975 9.69831 8.08659 8.49398C7.93955 8.05501 7.95662 7.65182 8.31994 7.31147C8.6937 6.96064 9.13955 6.94232 9.63188 7.07933C17.0406 9.12756 24.4521 11.1714 31.8627 13.2162C32.0097 13.2572 32.1587 13.2956 32.2991 13.3514C33.0779 13.6621 33.2335 14.5942 32.5875 15.1021C32.4082 15.2426 32.2042 15.356 32.0069 15.4765C30.3838 16.4731 28.7607 17.468 27.1377 18.4646C27.0428 18.5239 26.9498 18.5868 26.7667 18.7055ZM16.3395 26.5065C16.4543 26.3564 16.5226 26.2692 16.5871 26.1802C17.532 24.8763 18.4768 23.5725 19.4216 22.2696C19.9993 21.4737 20.7165 21.4047 21.4469 22.0758C23.3062 23.7846 25.1626 25.4942 27.021 27.203C27.1111 27.2859 27.206 27.3644 27.2657 27.4159C28.2494 26.5126 29.2161 25.6242 30.2415 24.6826C30.1637 24.6311 30.0452 24.5735 29.9541 24.4897C28.0853 22.7749 26.2194 21.0574 24.3544 19.3399C23.6752 18.7142 23.7501 18.0274 24.5479 17.5378C25.9841 16.6555 27.4213 15.7749 28.8575 14.8926C28.959 14.8307 29.0548 14.7608 29.1943 14.6675C23.0472 12.9701 16.9647 11.2919 10.8252 9.5962C12.6694 15.2513 14.4935 20.8471 16.3395 26.5065Z" fill="white"/>
<path d="M8.0009 2.48412C8.0009 2.01569 7.9984 1.54643 8.00173 1.07799C8.00507 0.444235 8.42527 -0.0033214 9.00556 1.85689e-05C9.57167 0.00335854 9.99354 0.45008 9.99687 1.0613C10.001 2.01987 10.001 2.9776 9.99687 3.93618C9.99437 4.54906 9.57417 4.99495 9.00806 4.99996C8.43028 5.00497 8.0059 4.55324 8.00173 3.92198C7.9984 3.4427 8.0009 2.96341 8.0009 2.48412Z" fill="white"/>
<path d="M13.3326 3.51713C13.7465 3.15741 14.1594 2.79544 14.5758 2.43786C15.1383 1.95331 15.8432 1.87852 16.2676 2.25243C16.6815 2.61727 16.5974 3.2303 16.0598 3.7018C15.2157 4.44058 14.3694 5.17606 13.5192 5.9095C12.9758 6.37855 12.2723 6.45206 11.851 6.09363C11.4211 5.72773 11.5078 5.10926 12.0626 4.62183C12.4836 4.25164 12.909 3.88518 13.3326 3.51713Z" fill="white"/>
<path d="M3.32129 4.72108C2.86963 4.39743 2.41552 4.07494 1.96607 3.74896C1.35722 3.30874 1.20411 2.70611 1.59181 2.30325C1.97012 1.91028 2.68037 1.92437 3.2719 2.34435C4.1989 3.00375 5.12234 3.66548 6.04382 4.33071C6.6331 4.75591 6.7846 5.35739 6.41434 5.75613C6.03634 6.16302 5.31961 6.14721 4.7082 5.71396C4.24387 5.38514 3.78341 5.05224 3.32129 4.72108Z" fill="white"/>
<path d="M4.07524 11.5617C4.48919 11.2019 4.90203 10.84 5.31844 10.4824C5.88094 9.99784 6.58589 9.92306 7.01026 10.297C7.4242 10.6618 7.3401 11.2748 6.80243 11.7463C5.95842 12.4851 5.11208 13.2206 4.26193 13.954C3.71848 14.4231 3.01501 14.4966 2.5937 14.1382C2.16379 13.7723 2.25046 13.1538 2.80523 12.6664C3.22631 12.2962 3.6517 11.9297 4.07524 11.5617Z" fill="white"/>
<path d="M2.99394 7.00199C3.58131 7.00199 4.16867 6.997 4.75703 7.00283C5.46367 7.00949 5.99289 7.43343 5.99991 7.9873C6.00793 8.5545 5.47469 8.99177 4.74901 8.99593C3.58632 9.00176 2.42362 9.00093 1.26093 8.99593C0.533241 8.99344 -0.00199903 8.562 5.61226e-06 7.99563C0.00201026 7.4276 0.534244 7.00866 1.26895 7.00283C1.84428 6.99866 2.41961 7.00199 2.99394 7.00199Z" fill="white"/>
</svg>
