<svg width="31" height="25" viewBox="0 0 31 25" fill="none" xmlns="http://www.w3.org/2000/svg">
<path d="M30.0333 8.65338C28.8401 11.7865 27.6516 14.9211 26.4522 18.0518C26.0097 19.2075 25.0464 19.8526 23.8 19.8533C19.9499 19.8549 16.0998 19.8549 12.2505 19.8533C11.3123 19.8533 10.6766 19.4186 10.3388 18.5444C8.51617 13.8217 6.69199 9.09906 4.88267 4.37168C4.7693 4.07534 4.6395 3.97604 4.32205 3.99246C3.56126 4.03156 2.79813 4.02608 2.03655 4.03937C1.01617 4.05736 0.340609 3.55694 0.0528692 2.5694C0.0450502 2.54282 0.0239388 2.52014 0.00830078 2.4959C0.00830078 2.28088 0.00830078 2.06586 0.00830078 1.85083C0.0442683 1.75075 0.07789 1.6491 0.116203 1.5498C0.384395 0.853908 0.877775 0.374603 1.62215 0.331598C2.83878 0.260445 4.0609 0.279211 5.28066 0.263573C5.36745 0.262791 5.45503 0.282338 5.54104 0.301104C6.91015 0.607609 7.76633 1.48959 8.27065 2.75471C8.59202 3.56085 8.91103 4.36856 9.2019 5.18564C9.29964 5.46009 9.42474 5.5461 9.71874 5.54532C15.5603 5.53515 21.4019 5.53672 27.2435 5.53828C28.4859 5.53828 29.522 6.27639 29.8949 7.41953C29.9457 7.57513 29.9872 7.73386 30.0333 7.89102C30.0333 8.14514 30.0333 8.39926 30.0333 8.65338ZM10.8197 9.30314C10.8314 9.35474 10.8353 9.39227 10.8486 9.42746C11.6829 11.5941 12.5164 13.7608 13.3616 15.9235C13.3937 16.0056 13.5415 16.0932 13.6361 16.094C16.7433 16.1026 19.8514 16.0994 22.9587 16.1057C23.1385 16.1057 23.2128 16.0416 23.2738 15.8828C24.0862 13.76 24.9056 11.6402 25.7211 9.51816C25.7462 9.45248 25.7571 9.38054 25.7766 9.30314C20.7772 9.30314 15.8058 9.30314 10.8197 9.30314Z" fill="#8E949F"/>
<path d="M22.9375 24.4869C22.8585 24.4541 22.7819 24.4173 22.7014 24.39C21.8256 24.0921 21.2822 23.2148 21.4292 22.3304C21.584 21.3945 22.3675 20.7307 23.3105 20.7346C24.23 20.7385 25.0314 21.4117 25.1643 22.2913C25.3082 23.2414 24.7836 24.1038 23.8836 24.3986C23.8023 24.4252 23.7225 24.458 23.642 24.4877C23.4066 24.4869 23.1721 24.4869 22.9375 24.4869Z" fill="#8E949F"/>
<path d="M14.6691 24.4868C14.5971 24.461 14.526 24.4328 14.4532 24.4102C13.5361 24.1287 12.995 23.2561 13.1404 22.2936C13.2757 21.3975 14.0865 20.7266 15.024 20.7344C15.9764 20.7423 16.7513 21.435 16.8818 22.396C17.0015 23.2748 16.4158 24.1521 15.5338 24.4149C15.4596 24.4367 15.3868 24.4625 15.3141 24.4868C15.0991 24.4868 14.8841 24.4868 14.6691 24.4868Z" fill="#8E949F"/>
</svg>
