<svg width="14" height="17" viewBox="0 0 14 17" fill="none" xmlns="http://www.w3.org/2000/svg">
<path d="M7.9641 12.7005L12.2021 8.46246L11.3748 7.62734L8.30751 10.6947L8.30751 4.5288C8.30751 3.19417 7.71434 1.92197 6.73873 1.14148C6.62947 1.05563 6.51239 0.969776 6.38751 0.883922C5.01386 -0.0292488 3.71825 -0.0448587 3.0002 0.0253852L3.008 1.18831C3.56995 1.13368 4.67044 1.14148 5.7319 1.85173C5.82556 1.91417 5.91922 1.98441 6.00508 2.05465C6.70751 2.61661 7.12898 3.53758 7.12898 4.53661L7.12898 10.7025L4.06166 7.63514L3.23434 8.46246L7.47239 12.7005L7.71434 12.9425L7.9641 12.7005Z" fill="white"/>
<line y1="16.5" x2="14" y2="16.5" stroke="white"/>
</svg>
