<svg width="10" height="13" viewBox="0 0 10 13" fill="none" xmlns="http://www.w3.org/2000/svg">
<path d="M4.9641 12.7005L9.20215 8.46246L8.37483 7.62734L5.30751 10.6947L5.30751 4.5288C5.30751 3.19417 4.71434 1.92197 3.73873 1.14148C3.62947 1.05563 3.51239 0.969776 3.38751 0.883922C2.01386 -0.0292488 0.718246 -0.0448587 0.000197409 0.0253852L0.00800223 1.18831C0.569954 1.13368 1.67044 1.14148 2.7319 1.85173C2.82556 1.91417 2.91922 1.98441 3.00508 2.05465C3.70751 2.61661 4.12898 3.53758 4.12898 4.53661L4.12898 10.7025L1.06166 7.63514L0.234344 8.46246L4.47239 12.7005L4.71434 12.9425L4.9641 12.7005Z" fill="white"/>
</svg>
